<svg viewBox="0 0 1024 1024" focusable="false" xmlns="http://www.w3.org/2000/svg" fill='#ddd'><path d="M871.63 314.16L559.3 491.52a96.46 96.46 0 01-94.82 0L152.37 314.16a22.53 22.53 0 10-22.32 39.12l312.32 177.36a141.93 141.93 0 00139.26 0l312.32-177.16a22.53 22.53 0 00-22.32-39.11z" /><path d="M880.64 133.73H143.36A104.45 104.45 0 0038.91 238.18v547.64a104.45 104.45 0 00104.45 104.45h737.28a104.45 104.45 0 00104.45-104.45V238.18a104.45 104.45 0 00-104.45-104.45zm59.4 652.09a59.4 59.4 0 01-59.4 59.39H143.36a59.4 59.4 0 01-59.4-59.4V238.19a59.4 59.4 0 0159.4-59.39h737.28a59.4 59.4 0 0159.4 59.4z" /></svg>
