<?xml version="1.0" encoding="UTF-8" standalone="no"?>
<svg
   version="1.1"
   width="1.5541431in"
   height="0.40777427in"
   viewBox="0 0 111.89852 29.359783"
   id="svg65"
   xmlns:xlink="http://www.w3.org/1999/xlink"
   xmlns="http://www.w3.org/2000/svg"
   xmlns:svg="http://www.w3.org/2000/svg">
  <defs
     id="defs10">
    <linearGradient
       id="grad1">
      <stop
         offset="0.0000%"
         stop-color="#b4d388"
         stop-opacity="1.0000"
         id="stop7" />
      <stop
         offset="32.0000%"
         stop-color="#66b34e"
         stop-opacity="1.0000"
         id="stop8" />
      <stop
         offset="58.0000%"
         stop-color="#158d40"
         stop-opacity="1.0000"
         id="stop9" />
      <stop
         offset="100.0000%"
         stop-color="#236335"
         stop-opacity="1.0000"
         id="stop10" />
    </linearGradient>
    <linearGradient
       xlink:href="#grad1"
       id="grad2"
       x1="255.85603"
       y1="375.11255"
       x2="255.85603"
       y2="377.85742"
       gradientTransform="matrix(1.3001046,0,0,0.76916887,-325.50532,-282.06581)"
       gradientUnits="userSpaceOnUse" />
  </defs>
  <defs
     id="defs14">
    <linearGradient
       id="grad3">
      <stop
         offset="0.0000%"
         stop-color="#b4d388"
         stop-opacity="1.0000"
         id="stop11" />
      <stop
         offset="32.0000%"
         stop-color="#66b34e"
         stop-opacity="1.0000"
         id="stop12" />
      <stop
         offset="70.0000%"
         stop-color="#158d40"
         stop-opacity="1.0000"
         id="stop13" />
      <stop
         offset="100.0000%"
         stop-color="#236335"
         stop-opacity="1.0000"
         id="stop14" />
    </linearGradient>
    <linearGradient
       xlink:href="#grad3"
       id="grad4"
       x1="232.17334"
       y1="418.9628"
       x2="232.17334"
       y2="421.06873"
       gradientTransform="matrix(1.4328225,0,0,0.69792314,-325.50532,-282.06581)"
       gradientUnits="userSpaceOnUse" />
  </defs>
  <defs
     id="defs18">
    <linearGradient
       id="grad5">
      <stop
         offset="0.0000%"
         stop-color="#b4d388"
         stop-opacity="1.0000"
         id="stop15" />
      <stop
         offset="32.0000%"
         stop-color="#66b34e"
         stop-opacity="1.0000"
         id="stop16" />
      <stop
         offset="58.0000%"
         stop-color="#158d40"
         stop-opacity="1.0000"
         id="stop17" />
      <stop
         offset="100.0000%"
         stop-color="#236335"
         stop-opacity="1.0000"
         id="stop18" />
    </linearGradient>
    <linearGradient
       xlink:href="#grad5"
       id="grad6"
       x1="232.32048"
       y1="418.84317"
       x2="232.32048"
       y2="421.56458"
       gradientTransform="matrix(1.4397624,0,0,0.69455903,-325.50532,-282.06581)"
       gradientUnits="userSpaceOnUse" />
  </defs>
  <defs
     id="defs22">
    <linearGradient
       id="grad7">
      <stop
         offset="0.0000%"
         stop-color="#7dcbe0"
         stop-opacity="1.0000"
         id="stop19" />
      <stop
         offset="32.0000%"
         stop-color="#72c2ad"
         stop-opacity="1.0000"
         id="stop20" />
      <stop
         offset="69.0000%"
         stop-color="#59b577"
         stop-opacity="1.0000"
         id="stop21" />
      <stop
         offset="100.0000%"
         stop-color="#2aa84d"
         stop-opacity="1.0000"
         id="stop22" />
    </linearGradient>
    <linearGradient
       xlink:href="#grad7"
       id="grad8"
       x1="322.74374"
       y1="299.729"
       x2="322.74374"
       y2="300.35278"
       gradientTransform="matrix(1.0325237,0,0,0.96850076,-325.50532,-282.06581)"
       gradientUnits="userSpaceOnUse" />
  </defs>
  <defs
     id="defs26">
    <linearGradient
       id="grad9">
      <stop
         offset="0.0000%"
         stop-color="#7dcbe0"
         stop-opacity="1.0000"
         id="stop23" />
      <stop
         offset="32.0000%"
         stop-color="#72c2ad"
         stop-opacity="1.0000"
         id="stop24" />
      <stop
         offset="69.0000%"
         stop-color="#59b577"
         stop-opacity="1.0000"
         id="stop25" />
      <stop
         offset="100.0000%"
         stop-color="#2aa84d"
         stop-opacity="1.0000"
         id="stop26" />
    </linearGradient>
    <linearGradient
       xlink:href="#grad9"
       id="grad10"
       x1="328.1673"
       y1="301.42563"
       x2="328.1673"
       y2="301.80838"
       gradientTransform="matrix(1.0321414,0,0,0.96885952,-325.50532,-282.06581)"
       gradientUnits="userSpaceOnUse" />
  </defs>
  <defs
     id="defs30">
    <linearGradient
       id="grad11">
      <stop
         offset="0.0000%"
         stop-color="#7dcbe0"
         stop-opacity="1.0000"
         id="stop27" />
      <stop
         offset="32.0000%"
         stop-color="#72c2ad"
         stop-opacity="1.0000"
         id="stop28" />
      <stop
         offset="69.0000%"
         stop-color="#59b577"
         stop-opacity="1.0000"
         id="stop29" />
      <stop
         offset="100.0000%"
         stop-color="#2aa84d"
         stop-opacity="1.0000"
         id="stop30" />
    </linearGradient>
    <linearGradient
       xlink:href="#grad11"
       id="grad12"
       x1="323.25467"
       y1="300.94876"
       x2="323.25467"
       y2="301.35971"
       gradientTransform="matrix(1.0325737,0,0,0.96845391,-325.50532,-282.06581)"
       gradientUnits="userSpaceOnUse" />
  </defs>
  <defs
     id="defs34">
    <linearGradient
       id="grad13">
      <stop
         offset="0.0000%"
         stop-color="#7dcbe0"
         stop-opacity="1.0000"
         id="stop31" />
      <stop
         offset="32.0000%"
         stop-color="#72c2ad"
         stop-opacity="1.0000"
         id="stop32" />
      <stop
         offset="69.0000%"
         stop-color="#59b577"
         stop-opacity="1.0000"
         id="stop33" />
      <stop
         offset="100.0000%"
         stop-color="#2aa84d"
         stop-opacity="1.0000"
         id="stop34" />
    </linearGradient>
    <linearGradient
       xlink:href="#grad13"
       id="grad14"
       x1="325.99051"
       y1="299.51703"
       x2="325.99051"
       y2="300.02869"
       gradientTransform="matrix(1.0321696,0,0,0.96883304,-325.50532,-282.06581)"
       gradientUnits="userSpaceOnUse" />
  </defs>
  <defs
     id="defs38">
    <linearGradient
       id="grad15">
      <stop
         offset="0.0000%"
         stop-color="#7dcbe0"
         stop-opacity="1.0000"
         id="stop35" />
      <stop
         offset="32.0000%"
         stop-color="#72c2ad"
         stop-opacity="1.0000"
         id="stop36" />
      <stop
         offset="69.0000%"
         stop-color="#59b577"
         stop-opacity="1.0000"
         id="stop37" />
      <stop
         offset="100.0000%"
         stop-color="#2aa84d"
         stop-opacity="1.0000"
         id="stop38" />
    </linearGradient>
    <linearGradient
       xlink:href="#grad15"
       id="grad16"
       x1="325.936"
       y1="301.92935"
       x2="325.936"
       y2="302.25513"
       gradientTransform="matrix(1.0309544,0,0,0.96997499,-325.50532,-282.06581)"
       gradientUnits="userSpaceOnUse" />
  </defs>
  <defs
     id="defs44">
    <linearGradient
       id="grad17">
      <stop
         offset="0.0000%"
         stop-color="#7dcbe0"
         stop-opacity="1.0000"
         id="stop41" />
      <stop
         offset="32.0000%"
         stop-color="#72c2ad"
         stop-opacity="1.0000"
         id="stop42" />
      <stop
         offset="69.0000%"
         stop-color="#59b577"
         stop-opacity="1.0000"
         id="stop43" />
      <stop
         offset="100.0000%"
         stop-color="#2aa84d"
         stop-opacity="1.0000"
         id="stop44" />
    </linearGradient>
    <linearGradient
       xlink:href="#grad17"
       id="grad18"
       x1="325.9762"
       y1="296.71396"
       x2="325.9762"
       y2="297.39688"
       gradientTransform="matrix(1.0319787,0,0,0.96901228,-325.50532,-282.06581)"
       gradientUnits="userSpaceOnUse" />
  </defs>
  <defs
     id="defs48">
    <linearGradient
       id="grad19">
      <stop
         offset="0.0000%"
         stop-color="#7dcbe0"
         stop-opacity="1.0000"
         id="stop45" />
      <stop
         offset="32.0000%"
         stop-color="#72c2ad"
         stop-opacity="1.0000"
         id="stop46" />
      <stop
         offset="69.0000%"
         stop-color="#59b577"
         stop-opacity="1.0000"
         id="stop47" />
      <stop
         offset="100.0000%"
         stop-color="#2aa84d"
         stop-opacity="1.0000"
         id="stop48" />
    </linearGradient>
    <linearGradient
       xlink:href="#grad19"
       id="grad20"
       x1="331.66046"
       y1="298.80362"
       x2="331.66046"
       y2="299.22269"
       gradientTransform="matrix(1.0323619,0,0,0.96865254,-325.50532,-282.06581)"
       gradientUnits="userSpaceOnUse" />
  </defs>
  <defs
     id="defs52">
    <linearGradient
       id="grad21">
      <stop
         offset="0.0000%"
         stop-color="#7dcbe0"
         stop-opacity="1.0000"
         id="stop49" />
      <stop
         offset="32.0000%"
         stop-color="#72c2ad"
         stop-opacity="1.0000"
         id="stop50" />
      <stop
         offset="69.0000%"
         stop-color="#59b577"
         stop-opacity="1.0000"
         id="stop51" />
      <stop
         offset="100.0000%"
         stop-color="#2aa84d"
         stop-opacity="1.0000"
         id="stop52" />
    </linearGradient>
    <linearGradient
       xlink:href="#grad21"
       id="grad22"
       x1="326.48145"
       y1="298.09753"
       x2="326.48145"
       y2="298.54764"
       gradientTransform="matrix(1.0322041,0,0,0.96880069,-325.50532,-282.06581)"
       gradientUnits="userSpaceOnUse" />
  </defs>
  <defs
     id="defs56">
    <linearGradient
       id="grad23">
      <stop
         offset="0.0000%"
         stop-color="#7dcbe0"
         stop-opacity="1.0000"
         id="stop53" />
      <stop
         offset="32.0000%"
         stop-color="#72c2ad"
         stop-opacity="1.0000"
         id="stop54" />
      <stop
         offset="69.0000%"
         stop-color="#59b577"
         stop-opacity="1.0000"
         id="stop55" />
      <stop
         offset="100.0000%"
         stop-color="#2aa84d"
         stop-opacity="1.0000"
         id="stop56" />
    </linearGradient>
    <linearGradient
       xlink:href="#grad23"
       id="grad24"
       x1="329.3111"
       y1="296.68329"
       x2="329.3111"
       y2="297.24353"
       gradientTransform="matrix(1.0322884,0,0,0.9687215,-325.50532,-282.06581)"
       gradientUnits="userSpaceOnUse" />
  </defs>
  <defs
     id="defs60">
    <linearGradient
       id="grad25">
      <stop
         offset="0.0000%"
         stop-color="#7dcbe0"
         stop-opacity="1.0000"
         id="stop57" />
      <stop
         offset="32.0000%"
         stop-color="#72c2ad"
         stop-opacity="1.0000"
         id="stop58" />
      <stop
         offset="69.0000%"
         stop-color="#59b577"
         stop-opacity="1.0000"
         id="stop59" />
      <stop
         offset="100.0000%"
         stop-color="#2aa84d"
         stop-opacity="1.0000"
         id="stop60" />
    </linearGradient>
    <linearGradient
       xlink:href="#grad25"
       id="grad26"
       x1="328.81003"
       y1="299.73416"
       x2="328.81003"
       y2="300.09094"
       gradientTransform="matrix(1.0323544,0,0,0.96865959,-325.50532,-282.06581)"
       gradientUnits="userSpaceOnUse" />
  </defs>
  <path
     d="M 50.80311,4.7047178 H 46.252 l -4.79586,4.01312 -2.28769,1.9059402 -2.53339,2.10718 V 4.7047178 H 33.56088 V 20.399468 h 3.07418 v -3.87861 l 4.35348,-3.61053 5.95226,7.48914 h 3.7883 l -7.45287,-9.39507 z m 13.8963,8.4526402 c 0,0 0,0 0,0 0.46772,-0.0449 0.9101,-0.15728 1.32809,-0.33666 1.5989,-0.67251 2.7058,-2.15205 2.7058,-3.8558302 0,-1.16657 -0.51639,-2.2197 -1.35249,-2.98277 -0.83692,-0.76214 -1.99249,-1.2325 -3.27179,-1.2325 H 53.2381 V 20.444338 h 3.07406 v -7.21933 h 3.07417 c 1.1069,0 2.0665,0.53802 2.6074,1.34504 l 0.074,0.1345 1.64768,2.93709 1.5745,2.8027 h 3.44338 l -1.5745,-2.8027 z m -8.38725,-2.71296 V 7.5521778 h 7.79686 c 0.54172,0 0.90998,0.22414 1.1069,0.40351 0.1724,0.15649 0.4676,0.51512 0.4676,1.03116 0,0.5609 -0.3692,1.0760202 -0.93438,1.3002702 -0.19692,0.0896 -0.41893,0.1345 -0.64012,0.1345 z m 17.9798,9.95507 V 4.7047178 H 71.21791 V 20.399468 Z M 92.61575,5.9372278 c -0.83597,-0.76215 -1.99166,-1.23251 -3.27097,-1.23251 H 78.49826 v 0 0 15.6947502 h 3.07417 v -7.22013 h 8.24007 v -0.022 c 0.0488,0 0.0984,0 0.14719,0 0.4676,-0.0449 0.90998,-0.15728 1.32809,-0.33666 1.5989,-0.67251 2.70568,-2.15205 2.70568,-3.8558302 0,-1.16657 -0.51639,-2.2197 -1.35237,-3.00474 z m -2.60728,4.3279102 c -0.19597,0.0896 -0.4181,0.13451 -0.6393,0.13451 H 81.57243 V 7.5073078 h 7.79674 c 0.54173,0 0.91011,0.22425 1.10691,0.40351 0.1724,0.15648 0.4676,0.51523 0.4676,1.03127 0,0.56079 -0.36921,1.0760202 -0.93521,1.3001602 z m 4.45271,-5.7845502 v 2.80259 h 7.05833 V 20.175338 h 3.075 V 7.2831778 h 7.05917 v -2.80259 z"
     style="fill:#ef7f1a;fill-rule:evenodd;stroke-width:1.16145"
     id="path1" />
  <path
     d="m 7.1541797,16.166388 c 0.9511,1.5859 4.8087003,4.5367 6.3577003,5.9866 0.5328,0.4989 1.0419,0.9792 1.56,1.4633 1.9909,1.863 0.8912,1.3885 4.7747,1.3885 1.0264,0 2.078,0.0215 3.1016,-0.005 -0.0739,-0.2853 -0.8396,-0.8831 -1.0709,-1.0997 -0.8291,-0.7767 -7.8141,-7.2599 -8.0218,-7.5511 1.0678,-1.0797 2.2975,-2.1593 3.4297,-3.2235 0.589,-0.5528 1.1181,-1.059 1.7063,-1.5985 0.6733,-0.6178 1.2453,-1.2356 2.2813,-0.8047 0.7605,0.3163 1.2962,1.2223 0.7708,2.1076 -0.3392,0.572 -4.502,4.1399 -5.1434,4.9365 0.3163,0.2092 2.8799,2.7631 3.2361,2.993 0.2446,-0.1257 3.5109,-3.2516 4.0068,-3.7165 1.4403,-1.3508 2.6937,-2.5163 2.7114,-4.9173 l 7e-4,-0.068 c 0.008,-1.1905 -0.4663,-2.3574002 -1.0575,-3.2028002 -1.9531,-2.7904 -5.7154,-3.7874 -8.6832,-1.5282 0,0 -0.0739,0.3273 -0.4552,0.6858 -0.0377,0.0583 -0.0784,0.116 -0.1227,0.1721 l -1.7197,2.2909002 -0.6362,-0.3879 c -0.3053,0.283 -0.34,0.3 -0.6629,0.5971 l 1.2733,-0.2247 0.0258,0.0155 0.6836,2.7225 c 0.2675,1.1514 -0.79,2.602 -2.0167,2.8533 v 0 c -1.226,0.2513 -2.6959,-0.6451 -2.9642,-1.7965 l -0.1788,-0.7693 c -1.3634003,1.2097 -2.1904003,1.9606 -2.2746003,1.8571 -0.2956,0.2912 -0.7073,0.6991 -0.912,0.824 z"
     style="fill:#ef7f1a;fill-rule:evenodd"
     id="path2" />
  <path
     d="m 10.55958,25.009288 0.0273,-4.3143 c -7e-4,-0.0466 -0.004,-0.1604 -0.0118,-0.2018 -0.0555,-0.3089 -0.3607,-0.4692 -0.8772003,-0.954 l -3.3721,-3.194 c 0.0621,-0.1071 0.0148,-0.0451 0.0917,-0.1396 l 1.7388,-1.6428 c 0.6245,-0.5853 1.2608,-1.1832 1.8860003,-1.7692 0.1448,-0.136 0.2512,-0.2232 0.3295,-0.2971 l -0.2313,-0.9932 -10e-4,-0.006 0.4426,-0.0902 v -0.3281 c -0.048,-0.0369 -0.0724,-0.0975 -0.0576,-0.1581 0.008,-0.0355 0.0295,-0.0658 0.0576,-0.0872 l 8e-4,-0.2565 c -0.4301,-0.2579 -1.1351003,-0.6459002 -1.8793003,-0.6983002 0.4959,-0.4626 1.3280003,-0.9822 1.8800003,-1.0974 v -0.218 c -2.4143003,0.4729 -2.1069003,-1.1115 -3.6374003,-1.7426 1.5335,-0.7397 3.1297003,-0.6444 3.6381003,0.8158 l 8e-4,-1.3693 -4.5404003,0.003 c 0.1115,3.7660002 0.005,7.6694002 0.005,11.4361002 l 0.0104,7.1439 c 0.1057,0.2727 0.6688,0.1544 1.3849,0.1544 1.0338,0 2.0825,-0.0162 3.1149003,0.005 z M 8.5383797,9.3941878 c -0.1138,-0.0244 -0.2284,0.0429 -0.2542,0.15 -0.0259,0.1064 0.0465,0.2136 0.1603,0.238 0.1138,0.0244 0.2276,-0.0429 0.2535,-0.1501 0.0259,-0.1064 -0.0458,-0.2135 -0.1596,-0.2379 z m -0.4102,-1.1647 c -0.1721,-0.0369 -0.3451,0.0651 -0.385,0.2276 -0.0391,0.1626 0.0702,0.3245 0.2424,0.3614 0.1729,0.037 0.3459,-0.065 0.3858,-0.2276 0.0391,-0.1618 -0.0702,-0.3244 -0.2432,-0.3614 z m 2.4543003,1.4891 v -0.1227 c -0.2328,-0.0539 -0.4508,-0.0687 -0.6504003,-7e-4 0.1685003,-0.0266 0.3910003,0.0318 0.6504003,0.1234 z m -0.235,1.0797002 c -1.2260003,2.0322 -2.2629003,0.8816 -3.4201003,1.1299 0.4907,-1.2607 1.9177,-2.2473002 3.2479003,-1.3435 -0.7109003,0.5513 -1.9281003,0.3385 -2.3959003,0.7774 0.3887,-0.2505 1.7759,-0.0775 2.5681003,-0.5638 z m 0.2357,-2.4439002 v -0.051 c -1.0642003,-0.1648 -1.8490003,-1.3516 -2.4890003,-1.373 0.5646,0.0938 1.3709,1.1794 2.4890003,1.424 z m -0.004,3.6285002 v 0 l -0.0791,-0.3385 z"
     style="fill:#2b2a29;fill-rule:evenodd"
     id="path3" />
  <path
     d="m 11.00888,7.6848878 1.7071,-2.1623 c 0.7471,-0.9467 2.183,-1.147 3.1917,-0.4464 v 0 c 1.0087,0.7021 1.2223,2.05 0.4752,2.9967 l -1.7071,2.1615002 z"
     style="fill:#ef7f1a;fill-rule:evenodd"
     id="path4" />
  <path
     d="m 13.46678,15.762888 v 0 c -1.226,0.2505 -2.4483,-0.4855 -2.7158,-1.6362 l -0.6105,-2.6234 -10e-4,-0.006 4.4598,-0.9127 0.003,0.0141 0.6082,2.6145 c 0.2675,1.1514 -0.5166,2.2983 -1.7433,2.5496 z"
     style="fill:#2b2a29;fill-rule:evenodd"
     id="path5" />
  <path
     d="m 11.28748,14.096488 v 0 c -0.1146,0.0236 -0.2276,-0.0451 -0.2528,-0.1515 l -0.535,-2.3006 0.4146,-0.0849 0.535,2.3005 c 0.0244,0.1071 -0.048,0.2135 -0.1618,0.2365 z"
     style="fill:#fefefe;fill-rule:evenodd"
     id="path6" />
  <path
     d="m 13.20668,5.7553878 v 0 c -0.0939,-0.0651 -0.2277,-0.0466 -0.2971,0.0413 l -1.4935,1.8919 0.3406,0.2372 1.4943,-1.8918 c 0.0695,-0.088 0.0495,-0.2129 -0.0443,-0.2786 z"
     style="fill:#fefefe;fill-rule:evenodd"
     id="path7" />
  <path
     d="m 10.64008,8.4681878 c -2.4801003,0.5085 -1.9635003,-1.0139 -3.5058003,-1.6502 1.5977,-0.7124 3.2294003,-0.4308 3.5686003,1.4485 -1.1373003,-0.0917 -1.7898003,-1.3428 -2.6087003,-1.3361 0.5742,0.0953 1.3982,1.322 2.5459003,1.5378 z"
     style="fill:url(#grad2)"
     id="path10" />
  <path
     d="m 10.17528,10.895788 c -1.1233003,1.6111 -1.7448003,0.459 -3.0174003,0.912 0.4915,-1.2608 1.6022,-1.9650002 2.9324003,-1.062 -0.7117003,0.5521 -1.8431003,0.1774 -2.3109003,0.6163 0.3887,-0.2505 1.6044,0.0193 2.3959003,-0.4663 z"
     style="fill:url(#grad4)"
     id="path14" />
  <path
     d="m 12.89918,10.255088 c -2.1734,1.2615 -2.2273,-0.3458002 -3.9182003,-0.4641002 1.2623003,-1.1801 2.9124003,-1.4255 3.9057003,0.2528002 -1.1122,0.2704 -2.1793,-0.7124002 -2.9546003,-0.4486002 0.5802003,-0.0902 1.7995003,0.8159002 2.9671003,0.6599002 z"
     style="fill:url(#grad6)"
     id="path18" />
  <path
     d="m 8.1281797,8.2294878 c -0.1721,-0.0369 -0.3451,0.0651 -0.385,0.2276 -0.0391,0.1626 0.0702,0.3245 0.2424,0.3614 0.1729,0.037 0.3459,-0.065 0.3858,-0.2276 0.0391,-0.1618 -0.0702,-0.3244 -0.2432,-0.3614 z"
     style="fill:url(#grad8)"
     id="path22" />
  <path
     d="m 13.45128,9.9779878 c -0.1065,-0.0229 -0.2129,0.0399 -0.2365,0.1397002 -0.0244,0.0997 0.0421,0.1988 0.1485,0.2217 0.1064,0.0229 0.2121,-0.0399 0.2365,-0.1397 0.0244,-0.0998 -0.0429,-0.1988 -0.1485,-0.2217002 z"
     style="fill:url(#grad10)"
     id="path26" />
  <path
     d="m 8.5383797,9.3941878 c -0.1138,-0.0244 -0.2284,0.0429 -0.2542,0.15 -0.0259,0.1064 0.0465,0.2136 0.1603,0.238 0.1138,0.0244 0.2276,-0.0429 0.2535,-0.1501 0.0259,-0.1064 -0.0458,-0.2135 -0.1596,-0.2379 z"
     style="fill:url(#grad12)"
     id="path30" />
  <path
     d="m 11.29488,8.1223878 c -0.1419,-0.0303 -0.2838,0.0532 -0.3163,0.1869 -0.0318,0.1331 0.0576,0.2661 0.1995,0.2964 0.1419,0.0303 0.2838,-0.0532 0.3155,-0.187 0.0326,-0.133 -0.0569,-0.266 -0.1987,-0.2963 z"
     style="fill:url(#grad14)"
     id="path34" />
  <path
     d="m 10.72508,10.801988 c -0.0902,-0.0192 -0.1811,0.0347 -0.201,0.119 -0.0207,0.085 0.0362,0.1699 0.1263,0.1892 0.0902,0.0192 0.1811,-0.034 0.2011,-0.119 0.0206,-0.085 -0.0363,-0.1693 -0.1264,-0.1892 z"
     style="fill:url(#grad16)"
     id="path38" />
  <path
     d="m 35.07799,23.015928 v 1.75621 h 0.35012 c 0.37179,0 0.64613,-0.0643 0.82372,-0.1938 0.17771,-0.12855 0.26739,-0.32899 0.26739,-0.59971 0,-0.28767 -0.10359,-0.51935 -0.31005,-0.69701 -0.20717,-0.17766 -0.47891,-0.26569 -0.81418,-0.26569 z m -1.51711,4.44547 v -5.07483 H 35.786 c 0.71318,0 1.26622,0.14297 1.65982,0.42892 0.39277,0.28595 0.59051,0.68774 0.59051,1.20458 0,0.42217 -0.15768,0.75883 -0.47114,1.00757 -0.31617,0.25035 -0.74029,0.37466 -1.27494,0.37466 h -1.21226 v 2.0591 z m 8.56755,-2.90664 v -2.16819 h 1.55978 v 5.07483 h -1.55978 v -2.22233 H 40.4573 v 2.22233 h -1.55977 v -5.07483 h 1.55977 v 2.16819 z m 3.79526,0.76215 h 1.37335 l -0.72026,-1.81883 z m -1.58581,2.14449 1.91059,-5.07483 h 1.50662 l 2.03869,5.07483 h -1.6564 l -0.58698,-1.49991 h -1.86888 l -0.55209,1.49991 z m 6.10203,0 v -5.07483 h 2.42887 c 0.69846,0 1.24713,0.13874 1.64686,0.41622 0.39701,0.27656 0.59652,0.65477 0.59652,1.1352 0,0.35108 -0.10806,0.64035 -0.32572,0.86288 -0.21601,0.22414 -0.53996,0.38325 -0.9702,0.47712 l 1.34553,2.18341 h -1.74349 l -1.35849,-2.58017 h 0.35011 c 0.3857,0 0.67312,-0.0753 0.86037,-0.22665 0.18808,-0.14973 0.28129,-0.37821 0.28129,-0.68522 0,-0.32407 -0.0966,-0.56343 -0.29083,-0.71991 -0.19515,-0.15568 -0.4973,-0.23352 -0.90928,-0.23352 h -0.3936 v 4.44547 z m 5.70338,0 v -5.07483 h 1.45949 l 1.25149,2.73665 1.24442,-2.73665 h 1.52666 v 5.07483 h -1.55187 v -3.33648 l -1.50144,3.33648 h -0.14978 l -1.46915,-3.18927 v 3.18927 z m 7.71401,-2.14449 h 1.37429 l -0.72108,-1.81883 z m -1.58581,2.14449 1.91071,-5.07483 h 1.5065 l 2.03869,5.07483 h -1.65628 l -0.58698,-1.49991 h -1.86888 l -0.55209,1.49991 z m 11.22633,-1.23846 c -0.23345,0.44324 -0.56612,0.78161 -0.99802,1.01341 -0.43024,0.23261 -0.94062,0.34937 -1.52842,0.34937 -0.38052,0 -0.73322,-0.0491 -1.05717,-0.14721 -0.32572,-0.099 -0.61656,-0.24531 -0.87522,-0.43648 -0.34658,-0.2555 -0.60701,-0.55323 -0.78036,-0.89413 -0.17323,-0.34101 -0.25949,-0.71739 -0.25949,-1.13189 0,-0.79007 0.28211,-1.43638 0.84647,-1.94142 0.56517,-0.50424 1.29156,-0.75631 2.17974,-0.75631 0.51038,0 0.95453,0.0931 1.33422,0.27828 0.37792,0.18613 0.70624,0.47379 0.98493,0.86208 l -0.708,0.4754 c -0.16898,-0.32911 -0.37627,-0.57614 -0.61915,-0.74017 -0.24476,-0.16495 -0.52345,-0.24623 -0.83692,-0.24623 -0.4808,0 -0.85177,0.17594 -1.11562,0.52954 -0.26303,0.352 -0.39536,0.85109 -0.39536,1.49568 0,0.59467 0.15072,1.07431 0.45369,1.4381 0.30227,0.36378 0.69928,0.54648 1.19046,0.54648 0.31004,0 0.59227,-0.0923 0.84823,-0.27496 0.25607,-0.18361 0.47903,-0.45422 0.6697,-0.81457 z m 0.87946,1.23846 v -5.07483 h 3.48616 v 0.68431 h -1.92639 v 1.47621 h 1.82445 v 0.68351 h -1.82445 v 1.54718 h 2.02915 v 0.68362 z m 4.72445,-5.07483 h 1.55978 v 3.00474 c 0,0.4991 0.0784,0.84846 0.2325,1.05233 0.15496,0.20136 0.4154,0.30289 0.78201,0.30289 0.36484,0 0.62527,-0.10153 0.77682,-0.30197 0.15237,-0.20055 0.22909,-0.55152 0.22909,-1.05325 v -3.00474 h 0.79237 v 3.23323 c 0,0.65557 -0.18112,1.14619 -0.54419,1.47358 -0.36237,0.32819 -0.90752,0.49234 -1.63814,0.49234 -0.33091,0 -0.64449,-0.0491 -0.94569,-0.14641 -0.3005,-0.0972 -0.54173,-0.22745 -0.72462,-0.3924 -0.18808,-0.16667 -0.32313,-0.35624 -0.40055,-0.56595 -0.0801,-0.20982 -0.11938,-0.49749 -0.11938,-0.86116 z m 6.53936,5.07483 v -4.39052 h -1.48306 v -0.68431 h 4.52671 v 0.68431 h -1.48305 v 4.39052 z m 5.36976,0 h -1.55977 v -5.07483 h 1.55977 z m 6.48868,-1.23846 c -0.2325,0.44324 -0.56518,0.78161 -0.99707,1.01341 -0.43107,0.23261 -0.94051,0.34937 -1.52925,0.34937 -0.38052,0 -0.73322,-0.0491 -1.05717,-0.14721 -0.3249,-0.099 -0.61668,-0.24531 -0.87523,-0.43648 -0.34669,-0.2555 -0.60618,-0.55323 -0.77941,-0.89413 -0.17335,-0.34101 -0.26043,-0.71739 -0.26043,-1.13189 0,-0.79007 0.28306,-1.43638 0.84646,-1.94142 0.56612,-0.50424 1.29145,-0.75631 2.17975,-0.75631 0.51038,0 0.95535,0.0931 1.33422,0.27828 0.37792,0.18613 0.70623,0.47379 0.98493,0.86208 l -0.708,0.4754 c -0.16899,-0.32911 -0.37627,-0.57614 -0.61926,-0.74017 -0.24465,-0.16495 -0.52252,-0.24623 -0.83681,-0.24623 -0.47986,0 -0.85083,0.17594 -1.11562,0.52954 -0.26208,0.352 -0.39454,0.85109 -0.39454,1.49568 0,0.59467 0.15072,1.07431 0.45287,1.4381 0.3031,0.36378 0.69928,0.54648 1.19045,0.54648 0.31005,0 0.59311,-0.0923 0.84824,-0.27496 0.25607,-0.18361 0.47903,-0.45422 0.6697,-0.81457 z m 1.76612,-0.90603 h 1.37428 l -0.72025,-1.81883 z m -1.58582,2.14449 1.91153,-5.07483 h 1.5058 l 2.03869,5.07483 h -1.6564 l -0.58698,-1.49991 h -1.86805 l -0.55292,1.49991 z m 6.10298,0 v -5.07483 h 1.55977 v 4.39121 h 2.02042 v 0.68362 z m 4.90039,-1.29008 c 0.11325,0.24451 0.25513,0.43224 0.42589,0.56503 0.17063,0.13026 0.35965,0.19631 0.56423,0.19631 0.21165,0 0.38499,-0.0567 0.51992,-0.1709 0.1367,-0.11253 0.2047,-0.2563 0.2047,-0.42721 0,-0.13954 -0.0514,-0.26557 -0.15332,-0.37809 -0.10276,-0.11173 -0.26997,-0.22677 -0.5033,-0.34181 l -0.2212,-0.1099 c -0.50601,-0.24622 -0.80993,-0.40946 -0.91269,-0.48982 -0.21165,-0.16747 -0.3606,-0.33414 -0.44851,-0.5 -0.0871,-0.16576 -0.13057,-0.36036 -0.13057,-0.58197 0,-0.48902 0.18018,-0.8883 0.53984,-1.19783 0.35883,-0.30964 0.8282,-0.46532 1.40469,-0.46532 0.40679,0 0.76209,0.0846 1.06777,0.25298 0.30475,0.16827 0.54338,0.41026 0.71578,0.72746 l -0.63399,0.40351 c -0.11054,-0.24359 -0.2516,-0.42629 -0.42141,-0.5482 -0.17075,-0.1218 -0.3745,-0.18269 -0.60972,-0.18269 -0.1968,0 -0.35966,0.0559 -0.4894,0.16747 -0.12881,0.11092 -0.19327,0.25126 -0.19327,0.41793 0,0.14126 0.0548,0.26569 0.1611,0.37226 0.10617,0.10565 0.31087,0.23008 0.61655,0.37214 l 0.10359,0.0499 c 0.56953,0.25722 0.91187,0.42973 1.02853,0.51947 0.20634,0.15396 0.35447,0.31548 0.44498,0.48639 0.0897,0.1709 0.13505,0.36962 0.13505,0.59719 0,0.49921 -0.19079,0.90432 -0.57308,1.2174 -0.38145,0.31376 -0.87781,0.47024 -1.48824,0.47024 -0.43637,0 -0.82125,-0.0862 -1.15569,-0.26133 -0.33526,-0.17514 -0.58957,-0.42126 -0.76456,-0.73937 z"
     style="fill:#2b2a29;fill-rule:evenodd;stroke-width:1.16145"
     id="path39" />
  <path
     d="m 15.31798,1.0685878 c 3.9226,0 7.4742,1.5238 10.0445,3.9884 2.5695,2.4638 4.1591,5.8662002 4.1591,9.6225002 0,3.7571 -1.5896,7.1595 -4.1591,9.6233 -2.5703,2.4646 -6.1219,3.9884 -10.0445,3.9884 -3.9226,0 -7.4735003,-1.5238 -10.0438003,-3.9884 -2.5702,-2.4638 -4.1591,-5.8662 -4.1591,-9.6233 0,-3.7563 1.5889,-7.1587002 4.1591,-9.6225002 2.5703,-2.4646 6.1212003,-3.9884 10.0438003,-3.9884 z m 9.6698,4.3343 c -2.4742,-2.3722 -5.8935,-3.8399 -9.6698,-3.8399 -3.7763,0 -7.1949003,1.4677 -9.6698003,3.8399 -2.4757,2.3729 -4.0069,5.6533002 -4.0069,9.2766002 0,3.6241 1.5312,6.9038 4.0069,9.2774 2.4749,2.3722 5.8935003,3.8399 9.6698003,3.8399 3.7763,0 7.1956,-1.4677 9.6698,-3.8399 2.4756,-2.3736 4.0069,-5.6533 4.0069,-9.2774 0,-3.6233 -1.5313,-6.9037002 -4.0069,-9.2766002 z"
     style="fill:#2b2a29;fill-rule:evenodd"
     id="path40" />
  <path
     d="m 15.31798,-1.2219939e-5 c 4.2308,0 8.0603,1.644300019939 10.8322,4.301700019939 2.7713,2.6567 4.4858,6.3266002 4.4858,10.3778002 0,4.052 -1.7138,7.7211 -4.4858,10.3785 -2.7719,2.6575 -6.6014,4.3018 -10.8322,4.3018 -4.2301,0 -8.0603003,-1.6443 -10.8323003,-4.3018 -2.7712,-2.6574 -4.485699990073,-6.3265 -4.485699990073,-10.3785 0,-4.0512 1.714499990073,-7.7211002 4.485699990073,-10.3778002 2.772,-2.6574 6.6022003,-4.301700019939 10.8323003,-4.301700019939 z M 25.74668,4.6748878 c -2.6685,-2.5584 -6.3561,-4.14130002 -10.4287,-4.14130002 -4.0727,0 -7.7595003,1.58290002 -10.4288003,4.14130002 -2.6693,2.5592 -4.32089999,6.0968002 -4.32089999,10.0046002 0,3.9086 1.65159999,7.4455 4.32089999,10.0053 2.6693,2.5585 6.3561003,4.1414 10.4288003,4.1414 4.0726,0 7.7602,-1.5829 10.4287,-4.1414 2.6701,-2.5598 4.321,-6.0967 4.321,-10.0053 0,-3.9078 -1.6509,-7.4454002 -4.321,-10.0046002 z"
     style="fill:#ef7f1a;fill-rule:evenodd"
     id="path41" />
  <path
     d="m 11.32518,5.4619878 c -0.1892,-0.0407 -0.3784,0.0717 -0.4213,0.249 -0.0428,0.1781 0.0761,0.3555 0.2653,0.3961 0.1892,0.0407 0.3784,-0.0717 0.422,-0.249 0.0429,-0.1781 -0.0761,-0.3555 -0.266,-0.3961 z"
     style="fill:url(#grad18)"
     id="path44" />
  <path
     d="m 17.15288,7.3759878 c -0.116,-0.0244 -0.2328,0.0443 -0.2594,0.153 -0.0258,0.1093 0.0473,0.218 0.1633,0.2431 0.1161,0.0244 0.2321,-0.0444 0.2587,-0.153 0.0266,-0.1086 -0.0466,-0.218 -0.1626,-0.2431 z"
     style="fill:url(#grad20)"
     id="path48" />
  <path
     d="m 11.77368,6.7366878 c -0.1241,-0.0266 -0.249,0.0473 -0.2778,0.1648 -0.0281,0.1168 0.0502,0.2336 0.1751,0.2602 0.1249,0.0273 0.2498,-0.0466 0.2779,-0.1641 0.0288,-0.1167 -0.0503,-0.2342 -0.1752,-0.2609 z"
     style="fill:url(#grad22)"
     id="path52" />
  <path
     d="m 14.79178,5.3444878 c -0.1552,-0.0333 -0.3104,0.0584 -0.3458,0.2047 -0.0355,0.1456 0.0628,0.2911 0.218,0.3244 0.1551,0.0332 0.3103,-0.0584 0.3458,-0.204 0.0355,-0.1463 -0.0621,-0.2919 -0.218,-0.3251 z"
     style="fill:url(#grad24)"
     id="path56" />
  <path
     d="m 14.16808,8.2789878 c -0.099,-0.0214 -0.1981,0.037 -0.2202,0.1301 -0.0229,0.0931 0.0399,0.1855 0.1389,0.2069 0.0983,0.0207 0.1973,-0.0377 0.2202,-0.13 0.0222,-0.0932 -0.0399,-0.1863 -0.1389,-0.207 z"
     style="fill:url(#grad26)"
     id="path60" />
</svg>
