<?xml version="1.0" encoding="UTF-8" standalone="no"?>
<svg
   version="1.1"
   width="3.4219418in"
   height="1.0042877in"
   viewBox="0 0 246.37981 72.308716"
   id="svg547"
   sodipodi:docname="Kript FB (1).cdr"
   xmlns:inkscape="http://www.inkscape.org/namespaces/inkscape"
   xmlns:sodipodi="http://sodipodi.sourceforge.net/DTD/sodipodi-0.dtd"
   xmlns:xlink="http://www.w3.org/1999/xlink"
   xmlns="http://www.w3.org/2000/svg"
   xmlns:svg="http://www.w3.org/2000/svg">
  <sodipodi:namedview
     id="namedview547"
     pagecolor="#ffffff"
     bordercolor="#000000"
     borderopacity="0.25"
     inkscape:showpageshadow="2"
     inkscape:pageopacity="0.0"
     inkscape:pagecheckerboard="0"
     inkscape:deskcolor="#d1d1d1"
     inkscape:document-units="in" />
  <path
     d="M -591.38497,583.02697 H 603.81488 q 14.4,0 14.4,-14.4 v -763.2 q 0,-14.4 -14.4,-14.4 H -591.38497 q -14.4,0 -14.4,14.4 v 763.2 q 0,14.4 14.4,14.4 z"
     style="fill:none;stroke:#1b1918;stroke-width:0.216;stroke-linecap:butt;stroke-linejoin:miter;stroke-dasharray:none"
     id="path1" />
  <defs
     id="defs66">
    <defs
       id="defs472">
      <linearGradient
         id="grad151">
        <stop
           offset="0.0000%"
           stop-color="#b3d383"
           stop-opacity="1.0000"
           id="stop469" />
        <stop
           offset="32.0000%"
           stop-color="#5fb143"
           stop-opacity="1.0000"
           id="stop470" />
        <stop
           offset="58.0000%"
           stop-color="#00892e"
           stop-opacity="1.0000"
           id="stop471" />
        <stop
           offset="100.0000%"
           stop-color="#005d25"
           stop-opacity="1.0000"
           id="stop472" />
      </linearGradient>
      <linearGradient
         xlink:href="#grad151"
         id="grad152"
         x1="744.25"
         y1="112.35143"
         x2="744.25"
         y2="119.11219"
         gradientTransform="matrix(1.3002379,0,0,0.76909001,-950.13257,-70.500889)"
         gradientUnits="userSpaceOnUse" />
    </defs>
    <defs
       id="defs476">
      <linearGradient
         id="grad153">
        <stop
           offset="0.0000%"
           stop-color="#b3d383"
           stop-opacity="1.0000"
           id="stop473" />
        <stop
           offset="32.0000%"
           stop-color="#5fb143"
           stop-opacity="1.0000"
           id="stop474" />
        <stop
           offset="70.0000%"
           stop-color="#00892e"
           stop-opacity="1.0000"
           id="stop475" />
        <stop
           offset="100.0000%"
           stop-color="#005d25"
           stop-opacity="1.0000"
           id="stop476" />
      </linearGradient>
      <linearGradient
         xlink:href="#grad153"
         id="grad154"
         x1="675.40741"
         y1="137.4994"
         x2="675.40741"
         y2="142.68654"
         gradientTransform="matrix(1.4328548,0,0,0.69790745,-950.13257,-70.500889)"
         gradientUnits="userSpaceOnUse" />
    </defs>
    <defs
       id="defs480">
      <linearGradient
         id="grad155">
        <stop
           offset="0.0000%"
           stop-color="#b3d383"
           stop-opacity="1.0000"
           id="stop477" />
        <stop
           offset="32.0000%"
           stop-color="#5fb143"
           stop-opacity="1.0000"
           id="stop478" />
        <stop
           offset="58.0000%"
           stop-color="#00892e"
           stop-opacity="1.0000"
           id="stop479" />
        <stop
           offset="100.0000%"
           stop-color="#005d25"
           stop-opacity="1.0000"
           id="stop480" />
      </linearGradient>
      <linearGradient
         xlink:href="#grad155"
         id="grad156"
         x1="675.26392"
         y1="132.87453"
         x2="675.26392"
         y2="139.57681"
         gradientTransform="matrix(1.4398081,0,0,0.69453702,-950.13257,-70.500889)"
         gradientUnits="userSpaceOnUse" />
    </defs>
    <defs
       id="defs484">
      <linearGradient
         id="grad157">
        <stop
           offset="0.0000%"
           stop-color="#76ccdc"
           stop-opacity="1.0000"
           id="stop481" />
        <stop
           offset="32.0000%"
           stop-color="#6bc2a9"
           stop-opacity="1.0000"
           id="stop482" />
        <stop
           offset="69.0000%"
           stop-color="#4eb46f"
           stop-opacity="1.0000"
           id="stop483" />
        <stop
           offset="100.0000%"
           stop-color="#07a540"
           stop-opacity="1.0000"
           id="stop484" />
      </linearGradient>
      <linearGradient
         xlink:href="#grad157"
         id="grad158"
         x1="938.9234"
         y1="93.675087"
         x2="938.9234"
         y2="95.2108"
         gradientTransform="matrix(1.0322282,0,0,0.96877798,-950.13257,-70.500889)"
         gradientUnits="userSpaceOnUse" />
    </defs>
    <defs
       id="defs488">
      <linearGradient
         id="grad159">
        <stop
           offset="0.0000%"
           stop-color="#76ccdc"
           stop-opacity="1.0000"
           id="stop485" />
        <stop
           offset="32.0000%"
           stop-color="#6bc2a9"
           stop-opacity="1.0000"
           id="stop486" />
        <stop
           offset="69.0000%"
           stop-color="#4eb46f"
           stop-opacity="1.0000"
           id="stop487" />
        <stop
           offset="100.0000%"
           stop-color="#07a540"
           stop-opacity="1.0000"
           id="stop488" />
      </linearGradient>
      <linearGradient
         xlink:href="#grad159"
         id="grad160"
         x1="951.78839"
         y1="98.147743"
         x2="951.78839"
         y2="99.090134"
         gradientTransform="matrix(1.0324413,0,0,0.96857805,-950.13257,-70.500889)"
         gradientUnits="userSpaceOnUse" />
    </defs>
    <defs
       id="defs492">
      <linearGradient
         id="grad161">
        <stop
           offset="0.0000%"
           stop-color="#76ccdc"
           stop-opacity="1.0000"
           id="stop489" />
        <stop
           offset="32.0000%"
           stop-color="#6bc2a9"
           stop-opacity="1.0000"
           id="stop490" />
        <stop
           offset="69.0000%"
           stop-color="#4eb46f"
           stop-opacity="1.0000"
           id="stop491" />
        <stop
           offset="100.0000%"
           stop-color="#07a540"
           stop-opacity="1.0000"
           id="stop492" />
      </linearGradient>
      <linearGradient
         xlink:href="#grad161"
         id="grad162"
         x1="940.1875"
         y1="96.645409"
         x2="940.1875"
         y2="97.657639"
         gradientTransform="matrix(1.032265,0,0,0.96874352,-950.13257,-70.500889)"
         gradientUnits="userSpaceOnUse" />
    </defs>
    <defs
       id="defs496">
      <linearGradient
         id="grad163">
        <stop
           offset="0.0000%"
           stop-color="#76ccdc"
           stop-opacity="1.0000"
           id="stop493" />
        <stop
           offset="32.0000%"
           stop-color="#6bc2a9"
           stop-opacity="1.0000"
           id="stop494" />
        <stop
           offset="69.0000%"
           stop-color="#4eb46f"
           stop-opacity="1.0000"
           id="stop495" />
        <stop
           offset="100.0000%"
           stop-color="#07a540"
           stop-opacity="1.0000"
           id="stop496" />
      </linearGradient>
      <linearGradient
         xlink:href="#grad163"
         id="grad164"
         x1="946.62781"
         y1="93.407372"
         x2="946.62781"
         y2="94.667938"
         gradientTransform="matrix(1.0322485,0,0,0.96875898,-950.13257,-70.500889)"
         gradientUnits="userSpaceOnUse" />
    </defs>
    <defs
       id="defs500">
      <linearGradient
         id="grad165"
         gradientTransform="matrix(1.0322534,0,0,0.96875434,-950.13257,-70.500889)"
         x1="945.54333"
         y1="100.22737"
         x2="946.34601"
         y2="100.22737"
         gradientUnits="userSpaceOnUse">
        <stop
           offset="0.0000%"
           stop-color="#76ccdc"
           stop-opacity="1.0000"
           id="stop497" />
        <stop
           offset="32.0000%"
           stop-color="#6bc2a9"
           stop-opacity="1.0000"
           id="stop498" />
        <stop
           offset="69.0000%"
           stop-color="#4eb46f"
           stop-opacity="1.0000"
           id="stop499" />
        <stop
           offset="100.0000%"
           stop-color="#07a540"
           stop-opacity="1.0000"
           id="stop500" />
      </linearGradient>
    </defs>
    <defs
       id="defs506">
      <linearGradient
         id="grad166">
        <stop
           offset="0.0000%"
           stop-color="#76ccdc"
           stop-opacity="1.0000"
           id="stop503" />
        <stop
           offset="32.0000%"
           stop-color="#6bc2a9"
           stop-opacity="1.0000"
           id="stop504" />
        <stop
           offset="69.0000%"
           stop-color="#4eb46f"
           stop-opacity="1.0000"
           id="stop505" />
        <stop
           offset="100.0000%"
           stop-color="#07a540"
           stop-opacity="1.0000"
           id="stop506" />
      </linearGradient>
      <linearGradient
         xlink:href="#grad166"
         id="grad167"
         x1="946.48718"
         y1="86.635216"
         x2="946.48718"
         y2="88.316574"
         gradientTransform="matrix(1.0322009,0,0,0.96880361,-950.13257,-70.500889)"
         gradientUnits="userSpaceOnUse" />
    </defs>
    <defs
       id="defs510">
      <linearGradient
         id="grad168">
        <stop
           offset="0.0000%"
           stop-color="#76ccdc"
           stop-opacity="1.0000"
           id="stop507" />
        <stop
           offset="32.0000%"
           stop-color="#6bc2a9"
           stop-opacity="1.0000"
           id="stop508" />
        <stop
           offset="69.0000%"
           stop-color="#4eb46f"
           stop-opacity="1.0000"
           id="stop509" />
        <stop
           offset="100.0000%"
           stop-color="#07a540"
           stop-opacity="1.0000"
           id="stop510" />
      </linearGradient>
      <linearGradient
         xlink:href="#grad168"
         id="grad169"
         x1="960.56384"
         y1="91.531082"
         x2="960.56384"
         y2="92.562851"
         gradientTransform="matrix(1.0324417,0,0,0.96857772,-950.13257,-70.500889)"
         gradientUnits="userSpaceOnUse" />
    </defs>
    <defs
       id="defs514">
      <linearGradient
         id="grad170">
        <stop
           offset="0.0000%"
           stop-color="#76ccdc"
           stop-opacity="1.0000"
           id="stop511" />
        <stop
           offset="32.0000%"
           stop-color="#6bc2a9"
           stop-opacity="1.0000"
           id="stop512" />
        <stop
           offset="69.0000%"
           stop-color="#4eb46f"
           stop-opacity="1.0000"
           id="stop513" />
        <stop
           offset="100.0000%"
           stop-color="#07a540"
           stop-opacity="1.0000"
           id="stop514" />
      </linearGradient>
      <linearGradient
         xlink:href="#grad170"
         id="grad171"
         x1="947.86157"
         y1="89.887772"
         x2="947.86157"
         y2="90.996017"
         gradientTransform="matrix(1.0322513,0,0,0.96875632,-950.13257,-70.500889)"
         gradientUnits="userSpaceOnUse" />
    </defs>
    <defs
       id="defs518">
      <linearGradient
         id="grad172">
        <stop
           offset="0.0000%"
           stop-color="#76ccdc"
           stop-opacity="1.0000"
           id="stop515" />
        <stop
           offset="32.0000%"
           stop-color="#6bc2a9"
           stop-opacity="1.0000"
           id="stop516" />
        <stop
           offset="69.0000%"
           stop-color="#4eb46f"
           stop-opacity="1.0000"
           id="stop517" />
        <stop
           offset="100.0000%"
           stop-color="#07a540"
           stop-opacity="1.0000"
           id="stop518" />
      </linearGradient>
      <linearGradient
         xlink:href="#grad172"
         id="grad173"
         x1="954.87946"
         y1="86.34581"
         x2="954.87946"
         y2="87.725945"
         gradientTransform="matrix(1.0322694,0,0,0.96873934,-950.13257,-70.500889)"
         gradientUnits="userSpaceOnUse" />
    </defs>
    <defs
       id="defs522">
      <linearGradient
         id="grad174">
        <stop
           offset="0.0000%"
           stop-color="#76ccdc"
           stop-opacity="1.0000"
           id="stop519" />
        <stop
           offset="32.0000%"
           stop-color="#6bc2a9"
           stop-opacity="1.0000"
           id="stop520" />
        <stop
           offset="69.0000%"
           stop-color="#4eb46f"
           stop-opacity="1.0000"
           id="stop521" />
        <stop
           offset="100.0000%"
           stop-color="#07a540"
           stop-opacity="1.0000"
           id="stop522" />
      </linearGradient>
      <linearGradient
         xlink:href="#grad174"
         id="grad175"
         x1="953.68201"
         y1="93.813805"
         x2="953.68201"
         y2="94.692627"
         gradientTransform="matrix(1.0322858,0,0,0.968724,-950.13257,-70.500889)"
         gradientUnits="userSpaceOnUse" />
    </defs>
  </defs>
  <defs
     id="defs458" />
  <path
     d="m 118.69123,11.516111 h -9.51 l -10.024096,8.6353 -4.7807,4.1004 -5.2946,4.5348 v -17.2705 h -6.4257 v 33.7691 h 6.4257 v -8.3459 l 9.0986,-7.7667 12.440196,16.1126 h 7.9163 l -15.5758,-20.2132 z m 29.0441,18.1871 c 0,0 0,0 0,0 0.9766,-0.0966 1.9019,-0.3378 2.7757,-0.7236 3.3415,-1.4473 5.6546,-4.6312 5.6546,-8.2976 0,-2.5086 -1.0794,-4.7759 -2.8273,-6.4162 -1.7477,-1.6401 -4.1637,-2.6531 -6.8367,-2.6531 h -22.7212 v 33.7689 h 6.4256 v -15.5336 h 6.4257 c 2.3133,0 4.318,1.1577 5.449,2.8944 l 0.1542,0.2895 3.4441,6.3195 3.2899,6.0302 h 7.1967 l -3.2899,-6.0302 z m -17.5293,-5.8372 v -6.2232 h 16.2956 c 1.1308,0 1.9019,0.4824 2.3131,0.8684 0.3599,0.3376 0.9767,1.1096 0.9767,2.2191 0,1.206 -0.7711,2.3156 -1.9534,2.7979 -0.4113,0.193 -0.8738,0.2894 -1.3364,0.2894 z m 37.5772,21.4192 v -33.7691 h -6.4256 v 33.7691 z m 38.297,-31.1158 c -1.7479,-1.6402 -4.1639,-2.6533 -6.8369,-2.6533 h -22.6698 v 0 0 33.7691 h 6.4257 v -15.5338 h 17.2208 v -0.0482 c 0.1027,0 0.2056,0 0.3084,0 0.9766,-0.0966 1.9019,-0.3378 2.7759,-0.7236 3.3413,-1.4473 5.6546,-4.6312 5.6546,-8.2976 0,-2.5086 -1.0796,-4.7759 -2.8273,-6.4644 z m -5.4489,9.3106 c -0.4113,0.193 -0.874,0.2894 -1.3366,0.2894 h -16.2955 v -6.2231 h 16.2955 c 1.1309,0 1.902,0.4824 2.3132,0.8683 0.3598,0.3378 0.9767,1.1096 0.9767,2.2192 0,1.2061 -0.771,2.3156 -1.9533,2.798 z m 9.3043,-12.4463 v 6.0302 h 14.7532 v 27.7389 h 6.4257 v -27.7389 h 14.7534 v -6.0302 z"
     style="fill:#f07c00;fill-rule:evenodd"
     id="path463"
     inkscape:export-filename="path463.png"
     inkscape:export-xdpi="1200"
     inkscape:export-ydpi="1200" />
  <path
     d="m 17.618534,39.815911 c 2.3426,3.9063 11.8435,11.1725 15.6595,14.7449 1.3122,1.2284 2.5666,2.4108 3.8417,3.6035 4.9041,4.5871 2.1953,3.4188 11.7587,3.4198 2.5283,4e-4 5.1193,0.0516 7.6401,-0.0132 -0.1827,-0.7024 -2.0685,-2.1741 -2.6385,-2.7084 -2.0408,-1.9133 -19.2448,-17.8798 -19.7555,-18.5971 2.6287,-2.6593 5.6576,-5.3181 8.447,-7.9391 1.4497,-1.3623 2.7538,-2.6085 4.2016,-3.9375 1.6575,-1.5211 3.0664,-3.043 5.619,-1.9818 1.872,0.7782 3.1931,3.0101 1.8991,5.191 -0.836,1.4092 -11.0881,10.1965 -12.6685,12.1586 0.7788,0.5149 7.0935,6.8047 7.9702,7.3701 0.6024,-0.3087 8.6462,-8.0081 9.8675,-9.1534 3.5472,-3.3262 6.6359,-6.1967 6.6786,-12.1102 v -0.1677 c 0.021,-2.9314 -1.1471,-5.8056 -2.6045,-7.8878 -4.8102,-6.8722 -14.075,-9.3277 -21.3859,-3.7637 0,0 -0.181,0.8059 -1.1201,1.6887 -0.0927,0.1447 -0.1932,0.2867 -0.3024,0.425 l -4.2363,5.6407 -1.5668,-0.9539 c -0.7516,0.697 -0.8375,0.7385 -1.6319,1.4701 l 3.1366,-0.554 0.0621,0.0378 1.6846,6.7067 c 0.659,2.8347 -1.9463,6.4083 -4.9665,7.0271 v 0 c -3.0204,0.6182 -6.6413,-1.5898 -7.3004,-4.4243 l -0.4406,-1.895 c -3.3594,2.9797 -5.3952,4.8282 -5.6022,4.5732 -0.7281,0.7173 -1.7416,1.7225 -2.2474,2.0299 z"
     style="fill:#f07c00;fill-rule:evenodd"
     id="path464" />
  <path
     d="m 26.005834,61.594111 0.0682,-10.6253 c -0.002,-0.1143 -0.0105,-0.3946 -0.0287,-0.4963 -0.1372,-0.7609 -0.8891,-1.1557 -2.1615,-2.3497 l -8.3057,-7.8667 c 0.1543,-0.2643 0.0381,-0.1105 0.2267,-0.3447 l 4.2828,-4.0447 c 1.5377,-1.4425 3.1045,-2.9145 4.6444,-4.3584 0.357,-0.3346 0.6191,-0.5494 0.8116,-0.7304 l -0.5688,-2.4463 -0.003,-0.0145 1.0895,-0.2231 4e-4,-0.8085 c -0.1185,-0.0904 -0.1792,-0.2393 -0.1431,-0.3883 0.0214,-0.0882 0.0736,-0.1626 0.1435,-0.2157 l 4e-4,-0.6316 c -1.0595,-0.6341 -2.7942,-1.5912 -4.6272,-1.7198 1.2204,-1.1399 3.2709,-2.4191 4.6296,-2.7033 l 2e-4,-0.5359 c -5.9466,1.1648 -5.1894,-2.7383 -8.9582,-4.2915 3.7771,-1.8222 7.7071,-1.5868 8.9592,2.0095 l 0.002,-3.3725 -11.1825,0.006 c 0.2756,9.2744 0.0133,18.8882 0.0133,28.1658 l 0.0253,17.5954 c 0.2608,0.6703 1.6468,0.3801 3.4106,0.3801 2.5466,0 5.1295,-0.0396 7.6716,0.01 z m -4.9776,-38.4582 c -0.2804,-0.0598 -0.5614,0.1063 -0.6252,0.3697 -0.0637,0.263 0.1132,0.5266 0.3934,0.5864 0.2809,0.0601 0.5616,-0.1059 0.6254,-0.3692 0.064,-0.2632 -0.1127,-0.5269 -0.3936,-0.5869 z m -1.0092,-2.8679 c -0.4255,-0.0908 -0.8516,0.1609 -0.9486,0.5605 -0.0967,0.3995 0.1716,0.7993 0.597,0.8901 0.4258,0.0911 0.852,-0.1609 0.9487,-0.5602 0.0968,-0.3995 -0.1712,-0.7995 -0.5971,-0.8904 z m 6.0441,3.6667 2e-4,-0.3006 c -0.5744,-0.1338 -1.1118,-0.1696 -1.6017,-0.003 0.4146,-0.0645 0.9625,0.0782 1.6015,0.3036 z m -0.579,2.66 c -3.0196,5.0046 -5.5728,2.1707 -8.4242,2.7826 1.2098,-3.1048 4.7245,-5.5346 8.0006,-3.3094 -1.752,1.3588 -4.7491,0.8345 -5.9021,1.9154 0.9577,-0.617 4.3749,-0.1921 6.3257,-1.3886 z m 0.5808,-6.0191 10e-5,-0.1258 c -2.6214,-0.4065 -4.5549,-3.3279 -6.1311,-3.3814 1.3918,0.2305 3.3767,2.9052 6.131,3.5072 z m -0.0121,8.9363 v -10e-5 l -0.1939,-0.8336 z"
     style="fill:#f9f9f9;fill-rule:evenodd"
     id="path465" />
  <path
     d="m 27.112134,18.925711 4.2043,-5.3252 c 1.8404,-2.331 5.3781,-2.8248 7.8621,-1.0981 h 1e-4 c 2.4837,1.7274 3.0102,5.0476 1.1698,7.3787 l -4.2046,5.3247 z"
     style="fill:#f07c00;fill-rule:evenodd"
     id="path466" />
  <path
     d="m 33.166934,38.821111 v 0 c -3.0204,0.6182 -6.0308,-1.1948 -6.69,-4.0293 l -1.5021,-6.4602 -0.003,-0.0145 10.9829,-2.2492 0.008,0.0354 1.4973,6.4393 c 0.659,2.8348 -1.2728,5.6597 -4.2931,6.2785 z"
     style="fill:#1b1918;fill-rule:evenodd"
     id="path467" />
  <path
     d="m 27.798234,34.718111 v 0 c -0.2807,0.0576 -0.5606,-0.1111 -0.6217,-0.3742 l -1.3176,-5.6657 1.0211,-0.209 1.3173,5.6657 c 0.0612,0.2635 -0.1183,0.526 -0.3991,0.5832 z"
     style="fill:#ffffff;fill-rule:evenodd"
     id="path468" />
  <path
     d="m 32.525534,14.174911 v 0 c -0.231,-0.1607 -0.5597,-0.1148 -0.7307,0.1019 l -3.6787,4.6594 0.8393,0.5838 3.6789,-4.6592 c 0.1709,-0.2168 0.1222,-0.5254 -0.1088,-0.6859 z"
     style="fill:#ffffff;fill-rule:evenodd"
     id="path469" />
  <path
     d="m 26.204634,20.855811 c -6.1074,1.2515 -4.8368,-2.498 -8.6351,-4.0634 3.9355,-1.7562 7.954,-1.0622 8.7906,3.5666 -2.8014,-0.2253 -4.4098,-3.3069 -6.4262,-3.2906 1.4152,0.2344 3.4436,3.2563 6.2707,3.7874 z"
     style="fill:url(#grad152)"
     id="path472" />
  <path
     d="m 25.060534,26.834711 c -2.767,3.9679 -4.297,1.1304 -7.4324,2.2464 1.2098,-3.1048 3.9464,-4.8405 7.2225,-2.6154 -1.7519,1.3588 -4.5392,0.4367 -5.6922,1.5176 0.9577,-0.617 3.9512,0.0478 5.9021,-1.1486 z"
     style="fill:url(#grad154)"
     id="path476" />
  <path
     d="m 31.767834,25.256211 c -5.3526,3.108 -5.4844,-0.8512 -9.65,-1.1433 3.1102,-2.9051 7.1736,-3.5093 9.6201,0.6231 -2.7402,0.6664 -5.3676,-1.754 -7.2763,-1.1049 1.4275,-0.222 4.432,2.0098 7.3062,1.6251 z"
     style="fill:url(#grad156)"
     id="path480" />
  <path
     d="m 20.019034,20.268011 c -0.4255,-0.0908 -0.8516,0.1609 -0.9486,0.5605 -0.0967,0.3995 0.1716,0.7993 0.597,0.8901 0.4258,0.0911 0.852,-0.1609 0.9487,-0.5602 0.0968,-0.3995 -0.1712,-0.7995 -0.5971,-0.8904 z"
     style="fill:url(#grad158)"
     id="path484" />
  <path
     d="m 33.127434,24.574311 c -0.2611,-0.0559 -0.5227,0.0984 -0.5822,0.3437 -0.0594,0.2451 0.1052,0.4905 0.3664,0.5462 0.2616,0.0559 0.5227,-0.0987 0.5823,-0.3439 0.0594,-0.2451 -0.1051,-0.4904 -0.3665,-0.546 z"
     style="fill:url(#grad160)"
     id="path488" />
  <path
     d="m 21.028234,23.135911 c -0.2804,-0.0598 -0.5614,0.1063 -0.6252,0.3697 -0.0637,0.263 0.1132,0.5266 0.3934,0.5864 0.2809,0.0601 0.5616,-0.1059 0.6254,-0.3692 0.064,-0.2632 -0.1127,-0.5269 -0.3936,-0.5869 z"
     style="fill:url(#grad162)"
     id="path492" />
  <path
     d="m 27.817334,20.003611 c -0.3492,-0.0747 -0.6992,0.132 -0.7785,0.46 -0.0796,0.3279 0.1405,0.6562 0.4901,0.7306 0.3494,0.0748 0.6991,-0.1317 0.7786,-0.46 0.0795,-0.3278 -0.1407,-0.6561 -0.4902,-0.7306 z"
     style="fill:url(#grad164)"
     id="path496" />
  <path
     d="m 26.413834,26.604511 c -0.2224,-0.0475 -0.4451,0.0841 -0.4957,0.2928 -0.0506,0.2088 0.0895,0.4179 0.312,0.4654 0.2225,0.0475 0.4453,-0.0841 0.4959,-0.293 0.0506,-0.2087 -0.0896,-0.4177 -0.3122,-0.4652 z"
     style="fill:url(#grad165)"
     id="path500" />
  <path
     d="m 85.827734,50.914911 v 3.7788 h 0.7305 c 0.778,0 1.3511,-0.1392 1.7222,-0.4179 0.3712,-0.2759 0.5584,-0.7078 0.5584,-1.2904 0,-0.6186 -0.2168,-1.1173 -0.6474,-1.4992 -0.4336,-0.3818 -1.0007,-0.5713 -1.7015,-0.5713 z m -3.1715,9.5641 v -10.9185 h 4.6503 c 1.4907,0 2.6459,0.3066 3.4684,0.9224 0.8226,0.616 1.2352,1.4799 1.2352,2.5918 0,0.9084 -0.3296,1.633 -0.9858,2.168 -0.6593,0.5379 -1.5471,0.8054 -2.6636,0.8054 h -2.533 v 4.4309 z m 17.906096,-6.2535 v -4.665 h 3.2605 v 10.9185 h -3.2605 v -4.782 h -3.492196 v 4.782 h -3.2605 v -10.9185 h 3.2605 v 4.665 z m 7.9315,1.6387 h 2.8715 l -1.5055,-3.9126 z m -3.3139,4.6148 3.9939,-10.9185 h 3.1477 l 4.2612,10.9185 h -3.4623 l -1.2265,-3.2271 h -3.905 l -1.1551,3.2271 z m 12.7539,0 v -10.9185 h 5.0749 c 1.4611,0 2.6073,0.2983 3.4417,0.8946 0.8314,0.5964 1.2472,1.4102 1.2472,2.444 0,0.7552 -0.2257,1.3767 -0.6801,1.8559 -0.4513,0.4822 -1.1283,0.825 -2.0281,1.0256 l 2.8122,4.6984 h -3.6437 l -2.8389,-5.5511 h 0.7305 c 0.8078,0 1.4077,-0.1617 1.7996,-0.4878 0.392,-0.3232 0.588,-0.8136 0.588,-1.4741 0,-0.6967 -0.202,-1.2123 -0.6088,-1.5495 -0.4068,-0.3344 -1.0393,-0.5016 -1.9005,-0.5016 h -0.8225 v 9.5641 z m 11.9196,0 v -10.9185 h 3.0498 l 2.616,5.8885 2.6013,-5.8885 h 3.1892 v 10.9185 h -3.2426 v -7.1786 l -3.1388,7.1786 h -0.3117 l -3.0705,-6.8609 v 6.8609 z m 16.1215,-4.6148 h 2.8715 l -1.5055,-3.9126 z m -3.3139,4.6148 3.9939,-10.9185 h 3.1477 l 4.2612,10.9185 h -3.4623 l -1.2265,-3.2271 h -3.905 l -1.1551,3.2271 z m 23.462,-2.6641 c -0.487,0.953 -1.1819,1.6804 -2.0847,2.1793 -0.8996,0.5015 -1.9657,0.7523 -3.1952,0.7523 -0.7957,0 -1.5322,-0.1058 -2.2091,-0.3176 -0.6802,-0.2119 -1.2888,-0.5267 -1.8293,-0.9391 -0.7246,-0.549 -1.2679,-1.1899 -1.6302,-1.9229 -0.3623,-0.7329 -0.5435,-1.5439 -0.5435,-2.4356 0,-1.6999 0.5909,-3.0905 1.7698,-4.1774 1.1818,-1.084 2.6992,-1.6274 4.5552,-1.6274 1.0661,0 1.9955,0.2006 2.7884,0.5991 0.7898,0.4013 1.4759,1.0199 2.0579,1.856 l -1.4788,1.0227 c -0.3535,-0.7078 -0.7869,-1.2401 -1.2948,-1.5939 -0.5106,-0.354 -1.0928,-0.5295 -1.749,-0.5295 -1.0036,0 -1.7787,0.379 -2.331,1.1397 -0.5494,0.7581 -0.8256,1.8309 -0.8256,3.2187 0,1.2792 0.3147,2.3102 0.9473,3.0933 0.6325,0.7831 1.461,1.176 2.4885,1.176 0.6473,0 1.2382,-0.1979 1.7728,-0.5908 0.5345,-0.3957 1.0006,-0.9781 1.3985,-1.7528 z m 1.8381,2.6641 v -10.9185 h 7.2872 v 1.4715 h -4.0267 v 3.1769 h 3.8128 v 1.4713 h -3.8128 v 3.3275 h 4.2404 v 1.4713 z m 9.8737,-10.9185 h 3.2605 v 6.4653 c 0,1.0729 0.1633,1.8253 0.487,2.2629 0.3236,0.4347 0.8671,0.6521 1.6333,0.6521 0.763,0 1.3065,-0.2174 1.6242,-0.6493 0.3178,-0.432 0.4782,-1.1872 0.4782,-2.2657 v -6.4653 h 1.6568 v 6.9558 c 0,1.4101 -0.38,2.4662 -1.1372,3.1714 -0.7572,0.705 -1.8976,1.0588 -3.4238,1.0588 -0.6919,0 -1.3482,-0.1058 -1.9777,-0.3148 -0.6266,-0.2091 -1.1315,-0.4905 -1.5145,-0.8444 -0.3919,-0.3596 -0.6741,-0.7663 -0.8374,-1.2179 -0.1663,-0.4514 -0.2494,-1.07 -0.2494,-1.8531 z m 13.6686,10.9185 v -9.447 h -3.1002 v -1.4715 h 9.4609 v 1.4715 h -3.1002 v 9.447 z m 11.2217,0 h -3.2605 v -10.9185 h 3.2605 z m 13.5617,-2.6641 c -0.4869,0.953 -1.1818,1.6804 -2.0846,2.1793 -0.8997,0.5015 -1.9658,0.7523 -3.1952,0.7523 -0.7957,0 -1.5322,-0.1058 -2.2092,-0.3176 -0.6801,-0.2119 -1.2888,-0.5267 -1.8293,-0.9391 -0.7245,-0.549 -1.2679,-1.1899 -1.6301,-1.9229 -0.3623,-0.7329 -0.5435,-1.5439 -0.5435,-2.4356 0,-1.6999 0.5909,-3.0905 1.7697,-4.1774 1.1819,-1.084 2.6993,-1.6274 4.5553,-1.6274 1.0661,0 1.9955,0.2006 2.7883,0.5991 0.7899,0.4013 1.476,1.0199 2.058,1.856 l -1.4788,1.0227 c -0.3535,-0.7078 -0.7869,-1.2401 -1.2948,-1.5939 -0.5107,-0.354 -1.0928,-0.5295 -1.749,-0.5295 -1.0037,0 -1.7788,0.379 -2.3311,1.1397 -0.5493,0.7581 -0.8255,1.8309 -0.8255,3.2187 0,1.2792 0.3147,2.3102 0.9472,3.0933 0.6326,0.7831 1.4611,1.176 2.4886,1.176 0.6473,0 1.2382,-0.1979 1.7727,-0.5908 0.5346,-0.3957 1.0007,-0.9781 1.3986,-1.7528 z m 3.6911,-1.9507 h 2.8716 l -1.5055,-3.9126 z m -3.3139,4.6148 3.9939,-10.9185 h 3.1478 l 4.2611,10.9185 h -3.4623 l -1.2264,-3.2271 h -3.905 l -1.1552,3.2271 z m 12.7539,0 v -10.9185 h 3.2606 v 9.4472 h 4.2226 v 1.4713 z m 10.2419,-2.7755 c 0.2376,0.5267 0.5345,0.9308 0.8908,1.2149 0.3563,0.2815 0.7513,0.4237 1.1789,0.4237 0.4425,0 0.8048,-0.1226 1.0868,-0.3679 0.2852,-0.2424 0.4276,-0.5517 0.4276,-0.9197 0,-0.3009 -0.1068,-0.5712 -0.3206,-0.8136 -0.2138,-0.2396 -0.5643,-0.4877 -1.0512,-0.7357 l -0.4633,-0.237 c -1.0571,-0.5295 -1.6925,-0.8805 -1.9064,-1.0534 -0.4425,-0.3594 -0.7542,-0.7188 -0.9384,-1.0756 -0.1811,-0.3567 -0.2731,-0.7747 -0.2731,-1.2512 0,-1.0534 0.377,-1.9118 1.1284,-2.5778 0.7513,-0.666 1.7312,-1.0005 2.9368,-1.0005 0.8493,0 1.5917,0.1813 2.2302,0.5435 0.6383,0.3623 1.1372,0.8834 1.4965,1.5661 l -1.3244,0.8667 c -0.2316,-0.5239 -0.5256,-0.9168 -0.8819,-1.1788 -0.3563,-0.2619 -0.781,-0.3929 -1.2739,-0.3929 -0.4099,0 -0.7513,0.1198 -1.0215,0.3594 -0.2703,0.2398 -0.4039,0.5407 -0.4039,0.9002 0,0.3037 0.1129,0.5713 0.3356,0.7998 0.2227,0.2285 0.6503,0.496 1.2888,0.8025 l 0.2167,0.106 c 1.1908,0.5545 1.9064,0.9252 2.1499,1.1175 0.4306,0.3316 0.7395,0.68 0.9295,1.0478 0.1871,0.3678 0.2821,0.7942 0.2821,1.2846 0,1.073 -0.398,1.9452 -1.1967,2.6197 -0.7988,0.6743 -1.8352,1.0115 -3.1121,1.0115 -0.9116,0 -1.7164,-0.1867 -2.4142,-0.5629 -0.7007,-0.3763 -1.2323,-0.9058 -1.5975,-1.5912 z"
     style="fill:#f9f9f9;fill-rule:evenodd"
     id="path501" />
  <path
     d="m 37.726234,2.6305111 c 9.6607,0 18.407,3.7543 24.738,9.8237999 6.3288,6.0673 10.2434,14.4469 10.2434,23.7001 0,9.2532 -3.9145,17.6327 -10.2434,23.7001 -6.331,6.0694 -15.0773,9.8237 -24.738,9.8237 -9.6606,0 -18.4069,-3.7543 -24.738,-9.8237 -6.3287998,-6.0674 -10.2432998,-14.4469 -10.2432998,-23.7001 0,-9.2532 3.9146,-17.6328 10.2432998,-23.7001 6.3311,-6.0694999 15.0774,-9.8237999 24.738,-9.8237999 z m 23.816,10.6754999 c -6.0949,-5.8430999 -14.5151,-9.4572999 -23.816,-9.4572999 -9.3007,0 -17.721,3.6142 -23.8159,9.4572999 -6.0970998,5.8452 -9.8683998,13.9234 -9.8683998,22.8484 0,8.9249 3.7713,17.0031 9.8683998,22.8484 6.0948,5.8429 14.5152,9.4572 23.8159,9.4572 9.3008,0 17.7212,-3.6143 23.816,-9.4572 6.0971,-5.8453 9.8684,-13.9235 9.8684,-22.8484 0,-8.925 -3.7713,-17.0032 -9.8684,-22.8484 z"
     style="fill:#f9f9f9;fill-rule:evenodd"
     id="path502" />
  <path
     d="m 37.726234,1.1074219e-5 c 10.4187,0 19.8513,4.048800025781 26.6792,10.594699925781 6.8253,6.5433 11.0471,15.5805 11.0471,25.5597 0,9.9792 -4.2217,19.0163 -11.0471,25.5597 -6.8279,6.5457 -16.2605,10.5946 -26.6792,10.5946 -10.4186,0 -19.8513,-4.0489 -26.6791,-10.5946 C 4.2217342,55.170711 3.4179688e-5,46.133611 3.4179688e-5,36.154411 3.4179688e-5,26.175211 4.2218342,17.138011 11.047134,10.594711 17.874934,4.0488111 27.307634,1.1074219e-5 37.726234,1.1074219e-5 Z M 63.411034,11.513211 c -6.5732,-6.3016999 -15.6541,-10.1993999 -25.6848,-10.1993999 -10.0305,0 -19.1115,3.8977 -25.6847,10.1993999 -6.5754998,6.3038 -10.6426998,15.0158 -10.6426998,24.6412 0,9.6252 4.0672,18.3373 10.6426998,24.6412 6.573,6.3014 15.6542,10.1993 25.6847,10.1993 10.0306,0 19.1118,-3.8979 25.6848,-10.1993 6.5755,-6.3039 10.6427,-15.016 10.6427,-24.6412 0,-9.6254 -4.0672,-18.3374 -10.6427,-24.6412 z"
     style="fill:#f07c00;fill-rule:evenodd"
     id="path503" />
  <path
     d="m 27.892534,13.451911 c -0.4658,-0.0994 -0.9323,0.1761 -1.0385,0.6136 -0.1059,0.4374 0.1878,0.8752 0.6536,0.9746 0.4661,0.0998 0.9327,-0.1761 1.0386,-0.6134 0.1061,-0.4374 -0.1874,-0.8753 -0.6537,-0.9748 z"
     style="fill:url(#grad167)"
     id="path506" />
  <path
     d="m 42.244234,18.166611 c -0.2858,-0.0612 -0.5723,0.1077 -0.6374,0.3763 -0.065,0.2684 0.1151,0.5371 0.4012,0.598 0.2863,0.0612 0.5722,-0.108 0.6375,-0.3765 0.065,-0.2683 -0.1151,-0.5369 -0.4013,-0.5978 z"
     style="fill:url(#grad169)"
     id="path510" />
  <path
     d="m 28.997434,16.591811 c -0.307,-0.0655 -0.6146,0.1164 -0.6844,0.4047 -0.0698,0.288 0.1239,0.5766 0.4307,0.6421 0.3075,0.0658 0.6149,-0.116 0.6847,-0.4042 0.0701,-0.2882 -0.1235,-0.5769 -0.431,-0.6426 z"
     style="fill:url(#grad171)"
     id="path514" />
  <path
     d="m 36.430534,13.162411 c -0.3824,-0.0818 -0.7655,0.1446 -0.8524,0.5037 -0.0872,0.3589 0.1539,0.7184 0.5366,0.7998 0.3825,0.0819 0.7654,-0.1442 0.8525,-0.5035 0.0869,-0.359 -0.1541,-0.7184 -0.5367,-0.8 z"
     style="fill:url(#grad173)"
     id="path518" />
  <path
     d="m 34.893934,20.389411 c -0.2436,-0.052 -0.4874,0.0921 -0.5428,0.3206 -0.0554,0.2286 0.098,0.4575 0.3416,0.5095 0.2436,0.052 0.4876,-0.0921 0.543,-0.3207 0.0553,-0.2285 -0.0982,-0.4574 -0.3418,-0.5094 z"
     style="fill:url(#grad175)"
     id="path522" />
</svg>
